<mxfile host="app.diagrams.net" modified="2020-09-02T14:44:54.305Z" agent="5.0 (Windows NT 10.0; Win64; x64) AppleWebKit/537.36 (KHTML, like Gecko) Chrome/85.0.4183.83 Safari/537.36" etag="u-t5N1s9eazWAYDlophE" version="13.6.6" type="github">
  <diagram name="Page-1" id="03018318-947c-dd8e-b7a3-06fadd420f32">
    <mxGraphModel dx="1020" dy="580" grid="1" gridSize="10" guides="1" tooltips="1" connect="1" arrows="1" fold="1" page="1" pageScale="1" pageWidth="1100" pageHeight="850" background="#ffffff" math="0" shadow="0">
      <root>
        <mxCell id="0" />
        <mxCell id="1" parent="0" />
        <mxCell id="677b7b8949515195-4" value="About" style="text;html=1;points=[];align=left;verticalAlign=top;spacingTop=-4;fontSize=14;fontFamily=Verdana" parent="1" vertex="1">
          <mxGeometry x="870" y="40" width="60" height="20" as="geometry" />
        </mxCell>
        <mxCell id="677b7b8949515195-5" value="Contact Us" style="text;html=1;points=[];align=left;verticalAlign=top;spacingTop=-4;fontSize=14;fontFamily=Verdana" parent="1" vertex="1">
          <mxGeometry x="940" y="40" width="60" height="20" as="geometry" />
        </mxCell>
        <mxCell id="677b7b8949515195-9" value="" style="line;strokeWidth=1;html=1;rounded=0;shadow=0;labelBackgroundColor=none;fillColor=none;fontFamily=Verdana;fontSize=14;fontColor=#000000;align=center;comic=1;" parent="1" vertex="1">
          <mxGeometry x="20" y="140" width="1060" height="10" as="geometry" />
        </mxCell>
        <mxCell id="677b7b8949515195-10" value="" style="whiteSpace=wrap;html=1;rounded=0;shadow=0;labelBackgroundColor=none;strokeWidth=1;fillColor=#fff2cc;fontFamily=Verdana;fontSize=12;align=center;comic=1;strokeColor=#d6b656;" parent="1" vertex="1">
          <mxGeometry x="30" y="160" width="1040" height="50" as="geometry" />
        </mxCell>
        <mxCell id="677b7b8949515195-11" value="&lt;b&gt;&lt;font color=&quot;#1a1a1a&quot;&gt;HOME&lt;/font&gt;&lt;/b&gt;" style="text;html=1;points=[];align=left;verticalAlign=top;spacingTop=-4;fontSize=14;fontFamily=Verdana" parent="1" vertex="1">
          <mxGeometry x="53" y="175" width="58" height="15" as="geometry" />
        </mxCell>
        <mxCell id="677b7b8949515195-12" value="&lt;font color=&quot;#ff0000&quot; size=&quot;1&quot;&gt;&lt;b style=&quot;font-size: 17px&quot;&gt;Specifics&lt;/b&gt;&lt;/font&gt;" style="text;html=1;points=[];align=left;verticalAlign=top;spacingTop=-4;fontSize=14;fontFamily=Verdana" parent="1" vertex="1">
          <mxGeometry x="180" y="175" width="58" height="20" as="geometry" />
        </mxCell>
        <mxCell id="677b7b8949515195-13" value="FAQs" style="text;html=1;points=[];align=left;verticalAlign=top;spacingTop=-4;fontSize=14;fontFamily=Verdana" parent="1" vertex="1">
          <mxGeometry x="340" y="175" width="58" height="20" as="geometry" />
        </mxCell>
        <mxCell id="677b7b8949515195-15" value="&lt;div style=&quot;text-align: justify&quot;&gt;&lt;br&gt;&lt;/div&gt;&lt;div style=&quot;text-align: justify&quot;&gt;&lt;br&gt;&lt;/div&gt;&lt;div style=&quot;text-align: justify&quot;&gt;&lt;br&gt;&lt;/div&gt;" style="whiteSpace=wrap;html=1;rounded=0;shadow=0;labelBackgroundColor=none;strokeWidth=1;fillColor=#fff2cc;fontFamily=Verdana;fontSize=12;align=center;verticalAlign=top;spacing=10;comic=1;strokeColor=#d6b656;" parent="1" vertex="1">
          <mxGeometry x="30" y="400" width="800" height="420" as="geometry" />
        </mxCell>
        <mxCell id="677b7b8949515195-16" value="" style="verticalLabelPosition=bottom;shadow=0;dashed=0;align=center;html=1;verticalAlign=top;strokeWidth=1;shape=mxgraph.mockup.graphics.simpleIcon;strokeColor=#999999;rounded=0;labelBackgroundColor=none;fontFamily=Verdana;fontSize=14;fontColor=#000000;comic=1;" parent="1" vertex="1">
          <mxGeometry x="30" y="230" width="800" height="160" as="geometry" />
        </mxCell>
        <mxCell id="677b7b8949515195-25" value="" style="whiteSpace=wrap;html=1;rounded=0;shadow=0;labelBackgroundColor=none;strokeWidth=1;fillColor=none;fontFamily=Verdana;fontSize=12;align=center;comic=1;" parent="1" vertex="1">
          <mxGeometry x="840" y="230" width="230" height="400" as="geometry" />
        </mxCell>
        <mxCell id="677b7b8949515195-26" value="" style="whiteSpace=wrap;html=1;rounded=0;shadow=0;labelBackgroundColor=none;strokeWidth=1;fillColor=none;fontFamily=Verdana;fontSize=12;align=center;comic=1;" parent="1" vertex="1">
          <mxGeometry x="840" y="640" width="230" height="180" as="geometry" />
        </mxCell>
        <mxCell id="677b7b8949515195-42" value="Ads / External Links" style="text;html=1;points=[];align=left;verticalAlign=top;spacingTop=-4;fontSize=14;fontFamily=Verdana" parent="1" vertex="1">
          <mxGeometry x="860" y="653" width="170" height="20" as="geometry" />
        </mxCell>
        <mxCell id="KRlAYUap2JPR7RObYWZh-1" value="" style="text;spacingTop=-5;whiteSpace=wrap;html=1;align=left;fontSize=12;fontFamily=Helvetica;fillColor=#fff2cc;strokeColor=#d6b656;" parent="1" vertex="1">
          <mxGeometry x="40" y="250" width="780" height="130" as="geometry" />
        </mxCell>
        <mxCell id="KRlAYUap2JPR7RObYWZh-3" value="Search" style="strokeWidth=1;shadow=0;dashed=0;align=center;html=1;shape=mxgraph.mockup.forms.searchBox;strokeColor=#999999;mainText=;strokeColor2=#008cff;fontColor=#666666;fontSize=17;align=left;spacingLeft=3;" parent="1" vertex="1">
          <mxGeometry x="810" y="80" width="230" height="30" as="geometry" />
        </mxCell>
        <mxCell id="KRlAYUap2JPR7RObYWZh-10" value="" style="strokeWidth=1;shadow=0;dashed=0;align=center;html=1;shape=mxgraph.mockup.forms.rrect;rSize=0;strokeColor=#82b366;fillColor=#d5e8d4;" parent="1" vertex="1">
          <mxGeometry x="855" y="246" width="200" height="300" as="geometry" />
        </mxCell>
        <mxCell id="KRlAYUap2JPR7RObYWZh-11" value="Sign In" style="strokeWidth=1;shadow=0;dashed=0;align=center;html=1;shape=mxgraph.mockup.forms.anchor;fontSize=12;fontColor=#666666;align=left;resizeWidth=1;spacingLeft=0;" parent="KRlAYUap2JPR7RObYWZh-10" vertex="1">
          <mxGeometry width="100" height="20" relative="1" as="geometry">
            <mxPoint x="10" y="10" as="offset" />
          </mxGeometry>
        </mxCell>
        <mxCell id="KRlAYUap2JPR7RObYWZh-12" value="" style="shape=line;strokeColor=#ddeeff;strokeWidth=2;html=1;resizeWidth=1;" parent="KRlAYUap2JPR7RObYWZh-10" vertex="1">
          <mxGeometry width="180" height="10" relative="1" as="geometry">
            <mxPoint x="10" y="30" as="offset" />
          </mxGeometry>
        </mxCell>
        <mxCell id="KRlAYUap2JPR7RObYWZh-13" value="User Name:" style="strokeWidth=1;shadow=0;dashed=0;align=center;html=1;shape=mxgraph.mockup.forms.anchor;fontSize=12;fontColor=#666666;align=left;resizeWidth=1;spacingLeft=0;" parent="KRlAYUap2JPR7RObYWZh-10" vertex="1">
          <mxGeometry width="100" height="20" relative="1" as="geometry">
            <mxPoint x="10" y="40" as="offset" />
          </mxGeometry>
        </mxCell>
        <mxCell id="KRlAYUap2JPR7RObYWZh-14" value="johndoe" style="strokeWidth=1;shadow=0;dashed=0;align=center;html=1;shape=mxgraph.mockup.forms.rrect;rSize=0;strokeColor=#999999;fontColor=#666666;align=left;spacingLeft=5;resizeWidth=1;" parent="KRlAYUap2JPR7RObYWZh-10" vertex="1">
          <mxGeometry width="150" height="25" relative="1" as="geometry">
            <mxPoint x="10" y="60" as="offset" />
          </mxGeometry>
        </mxCell>
        <mxCell id="KRlAYUap2JPR7RObYWZh-15" value="Password:" style="strokeWidth=1;shadow=0;dashed=0;align=center;html=1;shape=mxgraph.mockup.forms.anchor;fontSize=12;fontColor=#666666;align=left;resizeWidth=1;spacingLeft=0;" parent="KRlAYUap2JPR7RObYWZh-10" vertex="1">
          <mxGeometry width="100" height="20" relative="1" as="geometry">
            <mxPoint x="10" y="95" as="offset" />
          </mxGeometry>
        </mxCell>
        <mxCell id="KRlAYUap2JPR7RObYWZh-16" value="********" style="strokeWidth=1;shadow=0;dashed=0;align=center;html=1;shape=mxgraph.mockup.forms.rrect;rSize=0;strokeColor=#999999;fontColor=#666666;align=left;spacingLeft=5;resizeWidth=1;" parent="KRlAYUap2JPR7RObYWZh-10" vertex="1">
          <mxGeometry width="150" height="25" relative="1" as="geometry">
            <mxPoint x="10" y="115" as="offset" />
          </mxGeometry>
        </mxCell>
        <mxCell id="KRlAYUap2JPR7RObYWZh-17" value="SIGN IN" style="strokeWidth=1;shadow=0;dashed=0;align=center;html=1;shape=mxgraph.mockup.forms.rrect;rSize=5;strokeColor=none;fontColor=#ffffff;fillColor=#66bbff;fontSize=16;fontStyle=1;" parent="KRlAYUap2JPR7RObYWZh-10" vertex="1">
          <mxGeometry y="1" width="80" height="30" relative="1" as="geometry">
            <mxPoint x="20" y="-150" as="offset" />
          </mxGeometry>
        </mxCell>
        <mxCell id="KRlAYUap2JPR7RObYWZh-18" value="Forgot Password?" style="strokeWidth=1;shadow=0;dashed=0;align=center;html=1;shape=mxgraph.mockup.forms.anchor;fontSize=12;fontColor=#9999ff;align=left;spacingLeft=0;fontStyle=4;resizeWidth=1;" parent="KRlAYUap2JPR7RObYWZh-10" vertex="1">
          <mxGeometry y="1" width="150" height="20" relative="1" as="geometry">
            <mxPoint x="10" y="-110" as="offset" />
          </mxGeometry>
        </mxCell>
        <mxCell id="KRlAYUap2JPR7RObYWZh-19" value="" style="shape=line;strokeColor=#ddeeff;strokeWidth=2;html=1;resizeWidth=1;" parent="KRlAYUap2JPR7RObYWZh-10" vertex="1">
          <mxGeometry y="1" width="180" height="10" relative="1" as="geometry">
            <mxPoint x="10" y="-90" as="offset" />
          </mxGeometry>
        </mxCell>
        <mxCell id="KRlAYUap2JPR7RObYWZh-20" value="New User" style="strokeWidth=1;shadow=0;dashed=0;align=center;html=1;shape=mxgraph.mockup.forms.anchor;fontSize=12;fontColor=#666666;align=left;spacingLeft=0;resizeWidth=1;" parent="KRlAYUap2JPR7RObYWZh-10" vertex="1">
          <mxGeometry y="1" width="150" height="20" relative="1" as="geometry">
            <mxPoint x="10" y="-70" as="offset" />
          </mxGeometry>
        </mxCell>
        <mxCell id="KRlAYUap2JPR7RObYWZh-21" value="SIGN UP" style="strokeWidth=1;shadow=0;dashed=0;align=center;html=1;shape=mxgraph.mockup.forms.rrect;rSize=5;strokeColor=none;fontColor=#ffffff;fillColor=#66bbff;fontSize=16;fontStyle=1;" parent="KRlAYUap2JPR7RObYWZh-10" vertex="1">
          <mxGeometry y="1" width="80" height="30" relative="1" as="geometry">
            <mxPoint x="20" y="-50" as="offset" />
          </mxGeometry>
        </mxCell>
        <mxCell id="KRlAYUap2JPR7RObYWZh-27" value="&lt;font style=&quot;font-size: 28px&quot;&gt;WR&lt;/font&gt;" style="shape=card;whiteSpace=wrap;html=1;fillColor=#fff2cc;strokeColor=#d6b656;" parent="1" vertex="1">
          <mxGeometry x="44" y="20" width="80" height="100" as="geometry" />
        </mxCell>
        <mxCell id="KRlAYUap2JPR7RObYWZh-29" value="Logo" style="text;html=1;strokeColor=none;fillColor=none;align=center;verticalAlign=middle;whiteSpace=wrap;rounded=0;" parent="1" vertex="1">
          <mxGeometry x="62" y="85" width="40" height="20" as="geometry" />
        </mxCell>
        <mxCell id="KRlAYUap2JPR7RObYWZh-37" value="" style="shape=ext;double=1;rounded=0;whiteSpace=wrap;html=1;fillColor=#d5e8d4;strokeColor=#82b366;" parent="1" vertex="1">
          <mxGeometry x="30" y="770" width="800" height="50" as="geometry" />
        </mxCell>
        <mxCell id="KRlAYUap2JPR7RObYWZh-38" value="Footer" style="text;html=1;strokeColor=none;fillColor=none;align=center;verticalAlign=middle;whiteSpace=wrap;rounded=0;" parent="1" vertex="1">
          <mxGeometry x="398" y="785" width="40" height="20" as="geometry" />
        </mxCell>
        <mxCell id="KRlAYUap2JPR7RObYWZh-40" value="Key Features" style="text;html=1;strokeColor=none;fillColor=none;align=center;verticalAlign=middle;whiteSpace=wrap;rounded=0;" parent="1" vertex="1">
          <mxGeometry x="270" y="450" width="330" height="20" as="geometry" />
        </mxCell>
        <mxCell id="GLXnp9aARLp8HVX11EyO-2" value="&lt;b&gt;&lt;font style=&quot;font-size: 15px&quot;&gt;Warranty Reminder Overview&lt;/font&gt;&lt;/b&gt;" style="text;html=1;strokeColor=none;fillColor=none;align=center;verticalAlign=middle;whiteSpace=wrap;rounded=0;" parent="1" vertex="1">
          <mxGeometry x="53" y="260" width="278" height="30" as="geometry" />
        </mxCell>
        <mxCell id="GLXnp9aARLp8HVX11EyO-3" value="&lt;b&gt;&lt;font style=&quot;font-size: 15px&quot;&gt;Pricing&lt;/font&gt;&lt;/b&gt;" style="text;html=1;strokeColor=none;fillColor=none;align=center;verticalAlign=middle;whiteSpace=wrap;rounded=0;" parent="1" vertex="1">
          <mxGeometry x="64" y="295" width="96" height="20" as="geometry" />
        </mxCell>
        <mxCell id="GLXnp9aARLp8HVX11EyO-4" value="&lt;b&gt;&lt;font style=&quot;font-size: 14px&quot;&gt;Track Products and Deadlines&lt;/font&gt;&lt;/b&gt;" style="text;html=1;strokeColor=none;fillColor=none;align=center;verticalAlign=middle;whiteSpace=wrap;rounded=0;" parent="1" vertex="1">
          <mxGeometry x="80" y="330" width="210" height="20" as="geometry" />
        </mxCell>
      </root>
    </mxGraphModel>
  </diagram>
</mxfile>
